<?xml version="1.0" encoding="UTF-8"?>
<svg id="Layer_2" data-name="Layer 2" xmlns="http://www.w3.org/2000/svg" viewBox="0 0 1921.02 964.8">
  <g id="Layer_1-2" data-name="Layer 1">
    <path d="M1921.02,477.88c-.28,1.43-.63,2.82-1.02,4.19h1.02v482.73H0V48.35C2.12,21.67,23.33.72,49.19.72h555.98c4.28-1.02,8.73-.49,13.31-.49s9.05.53,13.34,1.55c26.18,6.19,45.94,29.2,47.16,58.35h-.31v389.52c0,164.58,126.57,297.99,282.71,297.99,78.07,0,148.74-33.35,199.9-87.28,51.16-53.93,82.8-128.42,82.8-210.71V60.13h-1.64c1.18-29.02,20.72-51.97,46.7-58.35,4.43-1.1,9.06-1.67,13.81-1.67s9.37-.49,13.8.61h555.99c23.72,0,43.52,17.61,48.28,41.11v436.05Z"/>
  </g>
</svg>